<svg id="Camada_1" data-name="Camada 1" xmlns="http://www.w3.org/2000/svg" viewBox="0 0 283.46 283.46"><defs><style>.cls-1{font-size:152.29px;fill:#fff;font-family:Knockout-HTF49-Liteweight, Knockout HTF49-Liteweight;font-style:italic;letter-spacing:-0.05em;}.cls-2{letter-spacing:-0.07em;}.cls-3{letter-spacing:-0.05em;}.cls-4{fill:#f7c94f;}</style></defs><text class="cls-1" transform="translate(154.02 149.08)">20<tspan class="cls-2"><tspan x="0" y="90.76">2</tspan><tspan class="cls-3" x="50.26" y="90.76">4</tspan></tspan></text><path class="cls-4" d="M85,140.08c-7.45,2.3-12.42,10.06-20,11.71-3.71.8-7.56,0-11.31-.64-8.69-1.53-17.86-2.37-26.17.59S12,162.41,12.15,171.24c.18,7.77,5.82,14.38,12.08,19s13.46,8,19.18,13.24,9.79,12.45,14.53,18.83,10.78,12.41,18.53,14.15a21,21,0,0,0,20.91-7.66c4.26-5.65,5.33-13.09,5.33-20.17s-.93-14.19,0-21.21c1.1-8.66,4.89-16.71,7.92-24.9,1.09-3,2.11-6.08,1.74-9.21C111.24,144.14,92.79,137.66,85,140.08Z"/><path class="cls-4" d="M141.45,166.66c-9.11,1.5-19.16,4.69-23.31,12.94-2.28,4.53-2.34,9.85-1.69,14.87s2,10.14,5,14.24,7.92,7.07,13,6.77c3.25-.19,6.27-1.64,9.2-3.07,7.13-3.48,14.44-7.09,19.84-12.91,5.55-6,10.1-18,5.14-25.68C163,165.07,150.4,165.18,141.45,166.66Z"/><path class="cls-4" d="M80.72,88.2c-1.12-3.82-2.39-7.87-5.46-10.4-4.2-3.46-10.47-2.94-15.54-1A32.48,32.48,0,0,0,40.39,98.26,30.49,30.49,0,0,0,47,126.17c6,6.56,16.2,10.06,24,5.82a20.48,20.48,0,0,0,5.91-5.1C86.1,115.77,84.5,101.06,80.72,88.2Z"/><path class="cls-4" d="M127.81,105A34,34,0,0,0,147,74.16a15.09,15.09,0,0,0-1.5-6.87c-1.8-3.34-5.46-5.39-9.2-6A28.89,28.89,0,0,0,125,62c-8.29,1.88-16.51,5.18-22.56,11.15s-9.54,15-7.31,23.2C99.78,113.52,115.59,110.7,127.81,105Z"/><path class="cls-4" d="M169.32,91.19a20.54,20.54,0,0,0-6,1.83,48.59,48.59,0,0,0-27.79,36.2,22.11,22.11,0,0,0,.06,8.73c2.2,9,13,13.77,22,11.74s16-9.24,20.66-17.19C185.35,120.27,194.93,88.39,169.32,91.19Z"/><path class="cls-4" d="M156,49.86a20.14,20.14,0,0,0-4.67,3.06,6.13,6.13,0,0,0-1.9,5.06c.54,3.4,5,5.05,8.15,3.79s5.22-4.45,6.45-7.66c.63-1.68.93-3.76-.34-5C162.52,48,158.83,48.22,156,49.86Z"/><path class="cls-4" d="M175.42,80.8A3.47,3.47,0,0,0,178.94,83a6.08,6.08,0,0,0,3.67-2.49A10.7,10.7,0,0,0,185,74.69a7.26,7.26,0,0,0-2.18-5.81,3,3,0,0,0-2.08-.93c-1.11,0-1.95,1-2.66,1.82a17.92,17.92,0,0,0-3.36,5.16C174,76.87,174.63,78.9,175.42,80.8Z"/><path class="cls-4" d="M93.71,61.57c-4.72.26-9.18.56-12.62,3.82a7.45,7.45,0,0,0-2.32,3.49,3.39,3.39,0,0,0,1.32,3.73,4.79,4.79,0,0,0,3.24.24,15.26,15.26,0,0,0,7.81-3.46A8.08,8.08,0,0,0,93.71,61.57Z"/><path class="cls-4" d="M172.69,169.18c2.48,1.1,5.54-.29,7-2.55s1.77-5.12,1.63-7.83a2.8,2.8,0,0,0-.92-2.3,2.67,2.67,0,0,0-1.91-.17,10.53,10.53,0,0,0-7.68,5.41C169.46,164.68,169.91,167.5,172.69,169.18Z"/></svg>