<svg id="Camada_1" data-name="Camada 1" xmlns="http://www.w3.org/2000/svg" viewBox="0 0 604.8 217.54"><defs><style>.cls-1{fill:#fff;}.cls-2{fill:#f7c94f;}</style></defs><path class="cls-1" d="M55.75,124.24H42.26v42.48H21.6V55.78H55.75c15.66,0,25.15,9,25.15,25V99.42C80.9,115.25,71.41,124.24,55.75,124.24ZM60.91,81.1c0-5.5-2.16-8.33-7.33-8.33H42.26v35.48H53.58c5.17,0,7.33-2.83,7.33-8.33Z"/><path class="cls-1" d="M118.88,166.72l-3.66-21.82H95.56l-4,21.82H72.24L94.56,55.78h23.16l22.15,110.94Zm-13-81-7.5,42.82h14.16Z"/><path class="cls-1" d="M170.52,74.1v92.62H149.7V74.1H129.21V55.78h61.63V74.1Z"/><path class="cls-1" d="M226.66,166.72,223,144.9H203.33l-4,21.82H180L202.33,55.78h23.16l22.16,110.94Zm-13-81-7.49,42.82h14.16Z"/><path class="cls-1" d="M274.63,169.22c-19,0-30.82-11.33-30.82-28.65v-7.66h19v6.49c0,8.17,3.83,12.66,11.33,12.66,7.33,0,11-4.33,11-11.16,0-8.83-5.66-14.82-16.65-23-11.33-8.16-23.66-19.15-23.66-34.65,0-16,10.33-29.81,30.32-29.81,17.49,0,29.15,12,29.15,28.48V89.1H285.46V82.43c0-6.83-3.5-11.83-10.5-11.83-6,0-10,3.84-10,10,0,9.33,5.49,14.16,17.82,23.15,13.16,9.83,22.49,19.83,22.49,34.82C305.28,156.4,293,169.22,274.63,169.22Z"/><path class="cls-1" d="M391.4,122.75c-10.66,11.66-13.66,19.82-13.66,26.32h35.65v17.65H356.58v-5.83c0-16.66,4.34-28.48,22.83-49.31,12.16-12.82,16.65-20.32,16.65-30,0-7.33-3.49-11.16-10.16-11.16-7,0-10.16,4.33-10.16,11.49V92.09H358.42V80.27c0-13.66,9-27,27.15-27,21,0,28.65,13.49,28.65,28.82C414.22,96.09,407.39,107.59,391.4,122.75Z"/><path class="cls-1" d="M446,169.22c-18,0-29.49-11.66-29.49-28.82V82.27c0-17.33,11.49-28.82,29.49-28.82s29.65,11.49,29.65,28.82V140.4C475.69,157.56,464.19,169.22,446,169.22ZM456.7,80.77c0-5.33-4-9.67-10.66-9.67-6.5,0-10.5,4.34-10.5,9.67v61c0,5.33,4,9.66,10.5,9.66,6.66,0,10.66-4.33,10.66-9.66Z"/><path class="cls-1" d="M512.83,122.75c-10.66,11.66-13.66,19.82-13.66,26.32h35.65v17.65H478v-5.83c0-16.66,4.33-28.48,22.82-49.31C513,98.76,517.5,91.26,517.5,81.6c0-7.33-3.5-11.16-10.16-11.16-7,0-10.17,4.33-10.17,11.49V92.09H479.85V80.27c0-13.66,9-27,27.15-27,21,0,28.65,13.49,28.65,28.82C535.65,96.09,528.83,107.59,512.83,122.75Z"/><path class="cls-1" d="M583.46,143.07v23.65H565.64V143.07H530.82v-14l36.32-73.3h16.32v71.3h9v16ZM565.64,91.59l-17,35.49h17Z"/><path class="cls-2" d="M324.39,107c-5.44,1.68-9.06,7.34-14.62,8.55-2.71.58-5.52,0-8.25-.47-6.34-1.12-13-1.73-19.1.43s-11.31,7.78-11.16,14.22c.13,5.67,4.24,10.5,8.81,13.86s9.82,5.81,14,9.65,7.15,9.09,10.6,13.74,7.87,9,13.52,10.33a15.37,15.37,0,0,0,15.25-5.59c3.11-4.12,3.89-9.55,3.89-14.72s-.68-10.35,0-15.47c.8-6.32,3.56-12.19,5.78-18.16a14.58,14.58,0,0,0,1.26-6.72C343.54,109.92,330.08,105.19,324.39,107Z"/><path class="cls-2" d="M365.58,126.34c-6.65,1.1-14,3.43-17,9.45-1.65,3.3-1.7,7.18-1.23,10.84A22.23,22.23,0,0,0,351,157c2.2,3,5.77,5.15,9.48,4.94a18.18,18.18,0,0,0,6.71-2.24c5.2-2.54,10.54-5.17,14.47-9.42s7.37-13.16,3.75-18.73C381.3,125.18,372.11,125.27,365.58,126.34Z"/><path class="cls-2" d="M321.28,69.11c-.82-2.78-1.74-5.74-4-7.59-3.07-2.52-7.64-2.14-11.34-.69a23.67,23.67,0,0,0-14.1,15.62,22.21,22.21,0,0,0,4.85,20.36c4.36,4.79,11.82,7.34,17.51,4.24a14.77,14.77,0,0,0,4.31-3.72C325.2,89.22,324,78.49,321.28,69.11Z"/><path class="cls-2" d="M355.63,81.38a24.78,24.78,0,0,0,14-22.51,11,11,0,0,0-1.1-5,9.3,9.3,0,0,0-6.71-4.4,21,21,0,0,0-8.23.57c-6.05,1.37-12.05,3.78-16.46,8.13s-7,10.94-5.33,16.92C335.18,87.58,346.71,85.52,355.63,81.38Z"/><path class="cls-2" d="M385.91,71.29a15.44,15.44,0,0,0-4.42,1.33A35.48,35.48,0,0,0,361.22,99a16.25,16.25,0,0,0,0,6.37c1.6,6.53,9.5,10,16.06,8.56s11.67-6.73,15.06-12.54C397.6,92.51,404.59,69.25,385.91,71.29Z"/><path class="cls-2" d="M376.15,41.14a14.73,14.73,0,0,0-3.4,2.24,4.44,4.44,0,0,0-1.38,3.69c.39,2.47,3.61,3.68,5.94,2.76s3.81-3.24,4.7-5.59c.47-1.22.68-2.74-.24-3.67S378.26,39.94,376.15,41.14Z"/><path class="cls-2" d="M390.36,63.71a2.54,2.54,0,0,0,2.57,1.63,4.46,4.46,0,0,0,2.68-1.82,7.88,7.88,0,0,0,1.75-4.27A5.31,5.31,0,0,0,395.77,55a2.19,2.19,0,0,0-1.52-.67,2.94,2.94,0,0,0-1.94,1.32,13.08,13.08,0,0,0-2.45,3.77A5.91,5.91,0,0,0,390.36,63.71Z"/><path class="cls-2" d="M330.76,49.68c-3.45.2-6.7.41-9.21,2.79a5.51,5.51,0,0,0-1.7,2.54,2.49,2.49,0,0,0,1,2.73,3.53,3.53,0,0,0,2.36.18,11.22,11.22,0,0,0,5.7-2.54A5.89,5.89,0,0,0,330.76,49.68Z"/><path class="cls-2" d="M388.37,128.18c1.81.8,4-.21,5.14-1.86a9.27,9.27,0,0,0,1.18-5.71,2,2,0,0,0-.67-1.68,2,2,0,0,0-1.39-.12,7.71,7.71,0,0,0-5.61,3.94C386,124.9,386.34,127,388.37,128.18Z"/></svg>